<svg width="86" height="87" viewBox="0 0 86 87" fill="none" xmlns="http://www.w3.org/2000/svg">
<path d="M39.4167 14.8333H14.3334C12.4327 14.8333 10.6098 15.5884 9.26582 16.9324C7.92181 18.2764 7.16675 20.0993 7.16675 22V72.1667C7.16675 74.0674 7.92181 75.8902 9.26582 77.2343C10.6098 78.5783 12.4327 79.3333 14.3334 79.3333H64.5001C66.4008 79.3333 68.2237 78.5783 69.5677 77.2343C70.9117 75.8902 71.6667 74.0674 71.6667 72.1667V47.0833M66.2917 9.45833C67.7173 8.03279 69.6507 7.23193 71.6667 7.23193C73.6828 7.23193 75.6162 8.03279 77.0417 9.45833C78.4673 10.8839 79.2681 12.8173 79.2681 14.8333C79.2681 16.8493 78.4673 18.7828 77.0417 20.2083L43.0001 54.25L28.6667 57.8333L32.2501 43.5L66.2917 9.45833Z" stroke="#A0AEC0" stroke-width="7.16667" stroke-linecap="round"/>
</svg>
