<svg width="74" height="74" viewBox="0 0 74 74" fill="none" xmlns="http://www.w3.org/2000/svg">
<rect width="74" height="74" rx="37" fill="#DCFCE7"/>
<path d="M58.4439 26.3814L31.4439 53.3814C31.2871 53.5383 31.101 53.6628 30.8962 53.7477C30.6913 53.8326 30.4717 53.8764 30.25 53.8764C30.0282 53.8764 29.8086 53.8326 29.6038 53.7477C29.3989 53.6628 29.2128 53.5383 29.0561 53.3814L17.2436 41.5689C16.9269 41.2523 16.749 40.8228 16.749 40.375C16.749 39.9272 16.9269 39.4978 17.2436 39.1811C17.5602 38.8645 17.9897 38.6866 18.4375 38.6866C18.8853 38.6866 19.3147 38.8645 19.6314 39.1811L30.25 49.8018L56.0561 23.9936C56.3727 23.677 56.8022 23.4991 57.25 23.4991C57.6978 23.4991 58.1272 23.677 58.4439 23.9936C58.7605 24.3103 58.9384 24.7397 58.9384 25.1875C58.9384 25.6353 58.7605 26.0648 58.4439 26.3814Z" fill="#16A34A"/>
</svg>
